<svg width="50" height="50" viewBox="0 0 50 50" fill="none" xmlns="http://www.w3.org/2000/svg">
<path opacity="0.6" d="M21.0625 8.33333C20.8958 8.95833 20.8333 9.64583 20.8333 10.4167V16.6667H10.4167V12.5C10.4167 10.2083 12.2917 8.33333 14.5833 8.33333H21.0625Z" fill="#CAD2D4"/>
<path d="M20.8333 39.5833V16.6667H10.4167C6.25 16.6667 4.16667 18.75 4.16667 22.9167V39.5833C4.16667 43.75 6.25 45.8333 10.4167 45.8333H27.0833C22.9167 45.8333 20.8333 43.75 20.8333 39.5833ZM14.0625 35.4167C14.0625 36.2708 13.3542 36.9792 12.5 36.9792C11.6458 36.9792 10.9375 36.2708 10.9375 35.4167V27.0833C10.9375 26.2292 11.6458 25.5208 12.5 25.5208C13.3542 25.5208 14.0625 26.2292 14.0625 27.0833V35.4167Z" fill="#CAD2D4"/>
<path opacity="0.4" d="M29.1667 45.8333H27.0833C22.9167 45.8333 20.8333 43.75 20.8333 39.5833V10.4167C20.8333 6.25 22.9167 4.16667 27.0833 4.16667H39.5833C43.75 4.16667 45.8333 6.25 45.8333 10.4167V39.5833C45.8333 43.75 43.75 45.8333 39.5833 45.8333H37.5" fill="#CAD2D4"/>
<path d="M37.5 37.5V45.8333H29.1667V37.5C29.1667 36.3542 30.1042 35.4167 31.25 35.4167H35.4167C36.5625 35.4167 37.5 36.3542 37.5 37.5Z" fill="#CAD2D4"/>
<path d="M29.1667 28.6458C28.3125 28.6458 27.6042 27.9375 27.6042 27.0833V16.6667C27.6042 15.8125 28.3125 15.1042 29.1667 15.1042C30.0208 15.1042 30.7292 15.8125 30.7292 16.6667V27.0833C30.7292 27.9375 30.0208 28.6458 29.1667 28.6458Z" fill="#CAD2D4"/>
<path d="M37.5 28.6458C36.6458 28.6458 35.9375 27.9375 35.9375 27.0833V16.6667C35.9375 15.8125 36.6458 15.1042 37.5 15.1042C38.3542 15.1042 39.0625 15.8125 39.0625 16.6667V27.0833C39.0625 27.9375 38.3542 28.6458 37.5 28.6458Z" fill="#CAD2D4"/>
</svg>
