<svg width="50" height="50" viewBox="0 0 50 50" fill="none" xmlns="http://www.w3.org/2000/svg">
<path d="M45.8333 39.5833V45.8333H4.16667V39.5833C4.16667 38.4375 5.10417 37.5 6.25 37.5H43.75C44.8958 37.5 45.8333 38.4375 45.8333 39.5833Z" fill="#CAD2D4" stroke="#CAD2D4" stroke-width="1.5" stroke-miterlimit="10" stroke-linecap="round" stroke-linejoin="round"/>
<path opacity="0.6" d="M16.6667 22.9167H8.33333V37.5H16.6667V22.9167Z" fill="#CAD2D4"/>
<path opacity="0.4" d="M25 22.9167H16.6667V37.5H25V22.9167Z" fill="#CAD2D4"/>
<path opacity="0.6" d="M33.3333 22.9167H25V37.5H33.3333V22.9167Z" fill="#CAD2D4"/>
<path opacity="0.4" d="M41.6667 22.9167H33.3333V37.5H41.6667V22.9167Z" fill="#CAD2D4"/>
<path d="M47.9167 47.3958H2.08333C1.22917 47.3958 0.520834 46.6875 0.520834 45.8333C0.520834 44.9792 1.22917 44.2708 2.08333 44.2708H47.9167C48.7708 44.2708 49.4792 44.9792 49.4792 45.8333C49.4792 46.6875 48.7708 47.3958 47.9167 47.3958Z" fill="#CAD2D4"/>
<path d="M44.5208 11.9792L25.7708 4.47922C25.3542 4.31256 24.6458 4.31256 24.2292 4.47922L5.47918 11.9792C4.75001 12.2708 4.16667 13.125 4.16667 13.9167V20.8333C4.16667 21.9792 5.10417 22.9167 6.25 22.9167H43.75C44.8958 22.9167 45.8333 21.9792 45.8333 20.8333V13.9167C45.8333 13.125 45.25 12.2708 44.5208 11.9792ZM25 17.7083C23.2708 17.7083 21.875 16.3125 21.875 14.5833C21.875 12.8542 23.2708 11.4583 25 11.4583C26.7292 11.4583 28.125 12.8542 28.125 14.5833C28.125 16.3125 26.7292 17.7083 25 17.7083Z" fill="#CAD2D4"/>
</svg>
