<svg width="74" height="75" viewBox="0 0 74 75" fill="none" xmlns="http://www.w3.org/2000/svg">
<path d="M58.7991 44.4067C57.905 45.3008 56.4867 45.3008 55.6233 44.4067C54.7292 43.5125 54.7292 42.0942 55.6233 41.2308C61.79 35.0642 61.79 25.0433 55.6233 18.9075C49.4567 12.7717 39.4358 12.7408 33.3 18.9075C27.1642 25.0742 27.1333 35.095 33.3 41.2308C34.1942 42.125 34.1942 43.5433 33.3 44.4067C32.4058 45.3008 30.9875 45.3008 30.1242 44.4067C22.2 36.4825 22.2 23.5942 30.1242 15.7008C38.0483 7.8075 50.9367 7.77667 58.83 15.7008C66.7233 23.625 66.7233 36.4825 58.7991 44.4067Z" fill="url(#paint0_linear_104_1080)"/>
<path opacity="0.4" d="M58.7992 15.7008C66.7233 23.625 66.7233 36.4825 58.7992 44.4067C56.0858 47.12 52.7558 48.9083 49.2717 49.7717C50.9058 43.1117 49.1175 35.8042 43.9067 30.5933C38.6958 25.3825 31.3883 23.5942 24.7283 25.2283C25.5917 21.7442 27.3492 18.4142 30.0933 15.7008C38.0175 7.77666 50.875 7.77666 58.7992 15.7008Z" fill="#B4F0FF"/>
<path d="M15.2008 30.5933C16.095 29.6992 17.5133 29.6992 18.3767 30.5933C19.2708 31.4875 19.2708 32.9058 18.3767 33.7692C12.21 39.9358 12.21 49.9567 18.3767 56.0925C24.5433 62.2283 34.5642 62.2592 40.7 56.0925C46.8358 49.9258 46.8667 39.905 40.7 33.7692C39.8058 32.875 39.8058 31.4567 40.7 30.5933C41.5942 29.6992 43.0125 29.6992 43.8758 30.5933C51.8 38.5175 51.8 51.4058 43.8758 59.2992C35.9517 67.1925 23.0633 67.2233 15.17 59.2992C7.27666 51.375 7.27666 38.5175 15.2008 30.5933Z" fill="url(#paint1_linear_104_1080)"/>
<path opacity="0.5" d="M43.9067 30.5933C49.1175 35.8042 50.9058 43.1117 49.2717 49.7717C48.4083 53.2558 46.62 56.5858 43.9067 59.2992C35.9825 67.2233 23.125 67.2233 15.2008 59.2992C7.27666 51.375 7.27666 38.5175 15.2008 30.5933C17.9142 27.8492 21.2442 26.0917 24.7283 25.2283C31.3883 23.5942 38.6958 25.3825 43.9067 30.5933Z" fill="#B4F0FF"/>
<defs>
<linearGradient id="paint0_linear_104_1080" x1="40.2051" y1="-7.77836" x2="79.9062" y2="28.4758" gradientUnits="userSpaceOnUse">
<stop stop-color="#04E4EF" stop-opacity="0.4"/>
<stop offset="1" stop-color="#4FFF90" stop-opacity="0.6"/>
</linearGradient>
<linearGradient id="paint1_linear_104_1080" x1="25.278" y1="12.3751" x2="64.979" y2="48.6293" gradientUnits="userSpaceOnUse">
<stop stop-color="#04E4EF" stop-opacity="0.4"/>
<stop offset="1" stop-color="#4FFF90" stop-opacity="0.6"/>
</linearGradient>
</defs>
</svg>
