<svg width="74" height="75" viewBox="0 0 74 75" fill="none" xmlns="http://www.w3.org/2000/svg">
<path opacity="0.4" d="M33.7933 6.85167L16.835 13.2033C13.5975 14.4367 10.9458 18.26 10.9458 21.7442V46.7192C10.9458 49.2167 12.58 52.5158 14.5842 53.9958L31.5425 66.6683C34.5333 68.9192 39.4358 68.9192 42.4267 66.6683L59.385 53.9958C61.3892 52.485 63.0233 49.2167 63.0233 46.7192V21.7442C63.0233 18.2908 60.3717 14.4367 57.1342 13.2342L40.1758 6.8825C38.4492 6.20417 35.5508 6.20417 33.7933 6.85167Z" fill="#B4F0FF"/>
<path d="M32.8683 44.3758C32.2825 44.3758 31.6967 44.16 31.2342 43.6975L26.27 38.7333C25.3758 37.8392 25.3758 36.3592 26.27 35.465C27.1642 34.5708 28.6442 34.5708 29.5383 35.465L32.8683 38.795L44.4925 27.1708C45.3867 26.2767 46.8667 26.2767 47.7608 27.1708C48.655 28.065 48.655 29.545 47.7608 30.4392L34.5025 43.6975C34.04 44.16 33.4542 44.3758 32.8683 44.3758Z" fill="url(#paint0_linear_104_1054)"/>
<defs>
<linearGradient id="paint0_linear_104_1054" x1="34.6185" y1="17.6163" x2="54.7989" y2="38.1038" gradientUnits="userSpaceOnUse">
<stop stop-color="#04E4EF" stop-opacity="0.4"/>
<stop offset="1" stop-color="#4FFF90" stop-opacity="0.6"/>
</linearGradient>
</defs>
</svg>
