<svg width="74" height="75" viewBox="0 0 74 75" fill="none" xmlns="http://www.w3.org/2000/svg">
<path opacity="0.4" d="M23.5875 64.9725C23.495 64.9725 23.3717 65.0342 23.2792 65.0342C17.2975 62.0742 12.4258 57.1717 9.435 51.19C9.435 51.0975 9.49666 50.9742 9.49666 50.8817C13.2583 51.9917 17.1433 52.8242 20.9975 53.4717C21.6758 57.3567 22.4775 61.2108 23.5875 64.9725Z" fill="#B4F0FF"/>
<path opacity="0.4" d="M64.565 51.2208C61.5125 57.3567 56.425 62.3208 50.2275 65.3117C51.3992 61.3958 52.3858 57.4492 53.0333 53.4717C56.9183 52.8242 60.7417 51.9917 64.5033 50.8817C64.4725 51.005 64.565 51.1283 64.565 51.2208Z" fill="#B4F0FF"/>
<path opacity="0.4" d="M64.8117 24.2725C60.9267 23.1008 57.0108 22.145 53.0333 21.4667C52.3858 17.4892 51.43 13.5425 50.2275 9.68833C56.61 12.7408 61.7592 17.89 64.8117 24.2725Z" fill="#B4F0FF"/>
<path opacity="0.4" d="M23.5875 10.0275C22.4775 13.7892 21.6758 17.6125 21.0283 21.4975C17.0508 22.1142 13.1042 23.1008 9.18834 24.2725C12.1792 18.075 17.1433 12.9875 23.2792 9.935C23.3717 9.935 23.495 10.0275 23.5875 10.0275Z" fill="#B4F0FF"/>
<path opacity="0.4" d="M47.7608 20.8192C40.6075 20.0175 33.3925 20.0175 26.2392 20.8192C27.01 16.595 27.9967 12.3708 29.3842 8.30083C29.4458 8.05417 29.415 7.86917 29.4458 7.6225C31.8817 7.03667 34.3792 6.66667 37 6.66667C39.59 6.66667 42.1183 7.03667 44.5233 7.6225C44.5542 7.86917 44.5542 8.05417 44.6158 8.30083C46.0033 12.4017 46.99 16.595 47.7608 20.8192Z" fill="#B4F0FF"/>
<path opacity="0.4" d="M20.3192 48.2608C16.0642 47.49 11.8708 46.5033 7.80084 45.1158C7.55417 45.0542 7.36917 45.085 7.12251 45.0542C6.53667 42.6183 6.16667 40.1208 6.16667 37.5C6.16667 34.91 6.53667 32.3817 7.12251 29.9767C7.36917 29.9458 7.55417 29.9458 7.80084 29.8842C11.9017 28.5275 16.0642 27.51 20.3192 26.7392C19.5483 33.8925 19.5483 41.1075 20.3192 48.2608Z" fill="#B4F0FF"/>
<path opacity="0.4" d="M67.8334 37.5C67.8334 40.1208 67.4634 42.6183 66.8775 45.0542C66.6309 45.085 66.4458 45.0542 66.1992 45.1158C62.0983 46.4725 57.905 47.49 53.6808 48.2608C54.4825 41.1075 54.4825 33.8925 53.6808 26.7392C57.905 27.51 62.1292 28.4967 66.1992 29.8842C66.4458 29.9458 66.6309 29.9767 66.8775 29.9767C67.4634 32.4125 67.8334 34.91 67.8334 37.5Z" fill="#B4F0FF"/>
<path opacity="0.4" d="M47.7608 54.1808C46.99 58.4358 46.0033 62.6292 44.6158 66.6992C44.5542 66.9458 44.5542 67.1308 44.5233 67.3775C42.1183 67.9633 39.59 68.3333 37 68.3333C34.3792 68.3333 31.8817 67.9633 29.4458 67.3775C29.415 67.1308 29.4458 66.9458 29.3842 66.6992C28.0275 62.5983 27.01 58.4358 26.2392 54.1808C29.8158 54.5817 33.3925 54.8592 37 54.8592C40.6075 54.8592 44.215 54.5817 47.7608 54.1808Z" fill="#B4F0FF"/>
<path d="M48.6036 49.1036C40.8919 50.0766 33.1081 50.0766 25.3964 49.1036C24.4234 41.3919 24.4234 33.6081 25.3964 25.8964C33.1081 24.9234 40.8919 24.9234 48.6036 25.8964C49.5766 33.6081 49.5766 41.3919 48.6036 49.1036Z" fill="url(#paint0_linear_104_1101)"/>
<defs>
<linearGradient id="paint0_linear_104_1101" x1="34.4105" y1="12.9077" x2="61.5423" y2="34.4729" gradientUnits="userSpaceOnUse">
<stop stop-color="#04E4EF" stop-opacity="0.4"/>
<stop offset="1" stop-color="#4FFF90" stop-opacity="0.6"/>
</linearGradient>
</defs>
</svg>
