<svg width="33" height="37" viewBox="0 0 33 37" fill="none" xmlns="http://www.w3.org/2000/svg">
<path d="M17.0438 34.771L23.5914 31.0606L17.0438 27.2802L17.0438 34.771ZM9.83422 31.0393L16.3452 34.7678L16.3452 27.2802L9.83422 31.0393ZM17.4017 26.6804L24.2964 30.6611L31.1671 26.7677L24.2248 22.8709L17.4017 26.6804ZM2.21759 26.6778L9.13276 30.6377L15.987 26.6804L9.06727 22.8168L2.21759 26.6778ZM24.9404 22.4713L31.529 26.1696L31.529 18.7928L24.9404 22.4713ZM9.78033 22.4149L16.3452 26.0804L16.3452 18.7145L9.78033 22.4149ZM17.0438 26.0804L23.5104 22.4698L17.0438 18.8399L17.0438 26.0804ZM1.85995 26.0775L8.35251 22.4178L1.85995 18.7928L1.85995 26.0775ZM17.2945 18.1794L24.2258 22.0702L31.2048 18.1738L24.3739 14.189L17.2945 18.1794ZM2.21418 18.1906L9.06556 22.0158L15.8695 18.1807L8.90542 14.2717L2.21418 18.1906ZM9.60381 13.8627L16.3452 17.6466L16.3452 9.91443L9.60381 13.8627ZM1.85995 17.5884L8.1997 13.8755L1.85995 10.3169L1.85995 17.5884ZM25.0789 13.7916L31.529 17.5542L31.529 10.1559L25.0789 13.7916ZM17.0438 17.5189L23.6748 13.7812L17.0438 9.91324L17.0438 17.5189ZM2.21657 9.71609L8.89792 13.4664L15.9995 9.30712L9.46209 5.53296L2.21657 9.71609ZM17.3901 9.30661L24.3798 13.3838L31.1683 9.55731L23.9958 5.49288L17.3901 9.30661ZM10.1606 5.12962L16.3452 8.70015L16.3452 1.55909L10.1606 5.12962ZM17.0438 8.70015L23.2907 5.0933L17.0438 1.55346L17.0438 8.70015ZM32.2276 26.7663C32.2276 26.8921 32.16 27.0082 32.0505 27.0702L16.8667 35.6742C16.7594 35.735 16.6279 35.7348 16.5209 35.6735L1.33706 26.9785C1.22842 26.9162 1.1614 26.8006 1.16139 26.6754L1.16139 9.72035C1.16139 9.59556 1.22796 9.48019 1.33603 9.4178L16.5198 0.651623L16.5403 0.640879C16.6435 0.590066 16.7658 0.593054 16.8667 0.650259L32.0505 9.25442C32.1599 9.31644 32.2275 9.43242 32.2276 9.55816L32.2276 26.7663Z" fill="#24D660" fill-opacity="0.3"/>
<path d="M0.674141 9.61754C0.669691 9.30541 0.832142 9.01461 1.10034 8.85487C1.36851 8.69514 1.70155 8.69075 1.97388 8.84327L9.61166 13.1219C9.88736 13.2763 10.0582 13.5677 10.0582 13.8837L10.0582 22.3238L16.6957 26.0671L23.8206 22.0723C24.0883 21.9222 24.415 21.9236 24.6814 22.076L32.2345 26.3983C32.5063 26.5538 32.6741 26.8431 32.6741 27.1562C32.6741 27.4694 32.5063 27.7586 32.2345 27.9141L17.1282 36.5587C16.8576 36.7135 16.525 36.7123 16.2555 36.5556L1.23644 27.8237L1.18732 27.793C0.947574 27.6315 0.802223 27.3605 0.802223 27.0689L0.802222 18.6114L0.674141 9.61754ZM2.54845 18.5865C2.54851 18.5906 2.54862 18.5948 2.54862 18.599L2.54862 26.5666L16.6977 34.7929L30.0427 27.1562L24.2432 23.8376L17.1215 27.8305C16.8556 27.9797 16.5311 27.9793 16.2656 27.8295L8.75602 23.5946L8.70571 23.5639C8.46094 23.4032 8.31175 23.1293 8.31175 22.8339L8.31175 14.3954L2.44186 11.1073L2.54845 18.5865Z" fill="#24D660"/>
<path d="M32.6741 27.1095L32.6722 27.1676C32.6529 27.4567 32.5586 27.7075 32.3057 27.8538C32.0359 28.0099 31.4521 28.0092 31.1819 27.8538L23.8501 23.6272C23.5792 23.4714 23.4181 23.1027 23.4181 22.7902L23.4181 14.3501L16.7806 10.6069L10.0567 14.4581L10.0567 13.7866C9.91876 13.1613 9.54225 13.1142 9.19264 12.8856L3.33551 9.60484C3.23655 9.5484 2.83134 9.31725 2.33064 9.04658C1.85586 8.75986 1.56339 8.61759 1.0524 8.88346C1.09725 8.84515 1.15846 8.8075 1.24172 8.75986L16.3481 0.115274C16.6186 -0.0395326 16.9511 -0.0383071 17.2206 0.118344L32.2397 8.85024L32.289 8.88094C32.5287 9.04247 32.6741 9.31349 32.6741 9.60508L32.6741 27.1095ZM16.7786 1.8811L3.33551 9.60484L9.19264 12.8856L16.3547 8.84342C16.6207 8.69432 16.9452 8.69469 17.2107 8.84445L24.7203 13.0794L24.7704 13.1101C25.0152 13.2707 25.1645 13.5446 25.1645 13.84L25.1645 22.2851L30.9277 25.6L30.9276 10.1073L16.7786 1.8811Z" fill="#00E6FF"/>
</svg>
