<svg width="120" height="120" viewBox="0 0 120 120" fill="none" xmlns="http://www.w3.org/2000/svg">
<path opacity="0.4" d="M54.8 10.3L27.3 20.6C22.05 22.6 17.75 28.8 17.75 34.45V74.95C17.75 79 20.4 84.35 23.65 86.75L51.15 107.3C56 110.95 63.95 110.95 68.8 107.3L96.3 86.75C99.55 84.3 102.2 79 102.2 74.95V34.45C102.2 28.85 97.9 22.6 92.65 20.65L65.15 10.35C62.35 9.25 57.65 9.25 54.8 10.3Z" fill="#B4F0FF"/>
<path d="M53.3 71.15C52.35 71.15 51.4 70.8 50.65 70.05L42.6 62C41.15 60.55 41.15 58.15 42.6 56.7C44.05 55.25 46.45 55.25 47.9 56.7L53.3 62.1L72.15 43.25C73.6 41.8 76 41.8 77.45 43.25C78.9 44.7 78.9 47.1 77.45 48.55L55.95 70.05C55.2 70.8 54.25 71.15 53.3 71.15Z" fill="url(#paint0_linear_361_2278)"/>
<defs>
<linearGradient id="paint0_linear_361_2278" x1="56.1382" y1="27.7561" x2="88.8632" y2="60.9792" gradientUnits="userSpaceOnUse">
<stop stop-color="#04E4EF" stop-opacity="0.4"/>
<stop offset="1" stop-color="#4FFF90" stop-opacity="0.6"/>
</linearGradient>
</defs>
</svg>
