<svg width="120" height="120" viewBox="0 0 120 120" fill="none" xmlns="http://www.w3.org/2000/svg">
<path opacity="0.4" d="M38.25 104.55C38.1 104.55 37.9 104.65 37.75 104.65C28.05 99.85 20.15 91.9 15.3 82.2C15.3 82.05 15.4 81.85 15.4 81.7C21.5 83.5 27.8 84.85 34.05 85.9C35.15 92.2 36.45 98.45 38.25 104.55Z" fill="#B4F0FF"/>
<path opacity="0.4" d="M104.7 82.25C99.75 92.2 91.5 100.25 81.45 105.1C83.35 98.75 84.95 92.35 86 85.9C92.3 84.85 98.5 83.5 104.6 81.7C104.55 81.9 104.7 82.1 104.7 82.25Z" fill="#B4F0FF"/>
<path opacity="0.4" d="M105.1 38.55C98.8 36.65 92.45 35.1 86 34C84.95 27.55 83.4 21.15 81.45 14.9C91.8 19.85 100.15 28.2 105.1 38.55Z" fill="#B4F0FF"/>
<path opacity="0.4" d="M38.25 15.45C36.45 21.55 35.15 27.75 34.1 34.05C27.65 35.05 21.25 36.65 14.9 38.55C19.75 28.5 27.8 20.25 37.75 15.3C37.9 15.3 38.1 15.45 38.25 15.45Z" fill="#B4F0FF"/>
<path opacity="0.4" d="M77.45 32.95C65.85 31.65 54.15 31.65 42.55 32.95C43.8 26.1 45.4 19.25 47.65 12.65C47.75 12.25 47.7 11.95 47.75 11.55C51.7 10.6 55.75 10 60 10C64.2 10 68.3 10.6 72.2 11.55C72.25 11.95 72.25 12.25 72.35 12.65C74.6 19.3 76.2 26.1 77.45 32.95Z" fill="#B4F0FF"/>
<path opacity="0.4" d="M32.95 77.45C26.05 76.2 19.25 74.6 12.65 72.35C12.25 72.25 11.95 72.3 11.55 72.25C10.6 68.3 10 64.25 10 60C10 55.8 10.6 51.7 11.55 47.8C11.95 47.75 12.25 47.75 12.65 47.65C19.3 45.45 26.05 43.8 32.95 42.55C31.7 54.15 31.7 65.85 32.95 77.45Z" fill="#B4F0FF"/>
<path opacity="0.4" d="M110 60C110 64.25 109.4 68.3 108.45 72.25C108.05 72.3 107.75 72.25 107.35 72.35C100.7 74.55 93.9 76.2 87.05 77.45C88.35 65.85 88.35 54.15 87.05 42.55C93.9 43.8 100.75 45.4 107.35 47.65C107.75 47.75 108.05 47.8 108.45 47.8C109.4 51.75 110 55.8 110 60Z" fill="#B4F0FF"/>
<path opacity="0.4" d="M77.45 87.05C76.2 93.95 74.6 100.75 72.35 107.35C72.25 107.75 72.25 108.05 72.2 108.45C68.3 109.4 64.2 110 60 110C55.75 110 51.7 109.4 47.75 108.45C47.7 108.05 47.75 107.75 47.65 107.35C45.45 100.7 43.8 93.95 42.55 87.05C48.35 87.7 54.15 88.15 60 88.15C65.85 88.15 71.7 87.7 77.45 87.05Z" fill="#B4F0FF"/>
<path d="M78.8167 78.8167C66.3112 80.3944 53.6888 80.3944 41.1833 78.8167C39.6056 66.3112 39.6056 53.6888 41.1833 41.1833C53.6888 39.6056 66.3112 39.6056 78.8167 41.1833C80.3944 53.6888 80.3944 66.3112 78.8167 78.8167Z" fill="url(#paint0_linear_361_2325)"/>
<defs>
<linearGradient id="paint0_linear_361_2325" x1="55.8009" y1="20.1205" x2="99.7983" y2="55.0912" gradientUnits="userSpaceOnUse">
<stop stop-color="#04E4EF" stop-opacity="0.4"/>
<stop offset="1" stop-color="#4FFF90" stop-opacity="0.6"/>
</linearGradient>
</defs>
</svg>
