<svg width="120" height="120" viewBox="0 0 120 120" fill="none" xmlns="http://www.w3.org/2000/svg">
<path d="M95.35 71.2C93.9 72.65 91.6 72.65 90.2 71.2C88.75 69.75 88.75 67.45 90.2 66.05C100.2 56.05 100.2 39.8 90.2 29.85C80.2 19.9 63.95 19.85 54 29.85C44.05 39.85 44 56.1 54 66.05C55.45 67.5 55.45 69.8 54 71.2C52.55 72.65 50.25 72.65 48.85 71.2C36 58.35 36 37.45 48.85 24.65C61.7 11.85 82.6 11.8 95.4 24.65C108.2 37.5 108.2 58.35 95.35 71.2Z" fill="url(#paint0_linear_361_2304)"/>
<path opacity="0.4" d="M95.35 24.65C108.2 37.5 108.2 58.35 95.35 71.2C90.95 75.6 85.55 78.5 79.9 79.9C82.55 69.1 79.65 57.25 71.2 48.8C62.75 40.35 50.9 37.45 40.1 40.1C41.5 34.45 44.35 29.05 48.8 24.65C61.65 11.8 82.5 11.8 95.35 24.65Z" fill="#B4F0FF"/>
<path d="M24.65 48.8C26.1 47.35 28.4 47.35 29.8 48.8C31.25 50.25 31.25 52.55 29.8 53.95C19.8 63.95 19.8 80.2 29.8 90.15C39.8 100.1 56.05 100.15 66 90.15C75.95 80.15 76 63.9 66 53.95C64.55 52.5 64.55 50.2 66 48.8C67.45 47.35 69.75 47.35 71.15 48.8C84 61.65 84 82.55 71.15 95.35C58.3 108.15 37.4 108.2 24.6 95.35C11.8 82.5 11.8 61.65 24.65 48.8Z" fill="url(#paint1_linear_361_2304)"/>
<path opacity="0.5" d="M71.2 48.8C79.65 57.25 82.55 69.1 79.9 79.9C78.5 85.55 75.6 90.95 71.2 95.35C58.35 108.2 37.5 108.2 24.65 95.35C11.8 82.5 11.8 61.65 24.65 48.8C29.05 44.35 34.45 41.5 40.1 40.1C50.9 37.45 62.75 40.35 71.2 48.8Z" fill="#B4F0FF"/>
<defs>
<linearGradient id="paint0_linear_361_2304" x1="65.1975" y1="-13.4244" x2="129.578" y2="45.3662" gradientUnits="userSpaceOnUse">
<stop stop-color="#04E4EF" stop-opacity="0.4"/>
<stop offset="1" stop-color="#4FFF90" stop-opacity="0.6"/>
</linearGradient>
<linearGradient id="paint1_linear_361_2304" x1="40.9913" y1="19.2569" x2="105.371" y2="78.0475" gradientUnits="userSpaceOnUse">
<stop stop-color="#04E4EF" stop-opacity="0.4"/>
<stop offset="1" stop-color="#4FFF90" stop-opacity="0.6"/>
</linearGradient>
</defs>
</svg>
