<svg width="133" height="28" viewBox="0 0 133 28" fill="none" xmlns="http://www.w3.org/2000/svg">
<g clip-path="url(#clip0_361_2250)">
<path d="M1.98695 14.2437L5.28487 19.9409L8.64508 14.2437L1.98695 14.2437ZM5.30381 7.97047L1.98983 13.6358L8.64508 13.6358L5.30381 7.97047ZM9.17821 14.5551L5.64003 20.5544L9.1006 26.5327L12.5642 20.4921L9.17821 14.5551ZM9.18048 1.34306L5.6608 7.36011L9.17821 13.3242L12.6122 7.30313L9.18048 1.34306ZM12.9194 21.1147L9.63221 26.8476L16.1889 26.8476L12.9194 21.1147ZM12.9695 7.92358L9.71149 13.6358L16.2585 13.6358L12.9695 7.92358ZM9.71149 14.2437L12.9207 19.8704L16.1471 14.2437L9.71149 14.2437ZM9.71407 1.03187L12.967 6.6812L16.1889 1.03187L9.71407 1.03187ZM16.7342 14.4618L13.2759 20.4929L16.7392 26.5655L20.281 20.6218L16.7342 14.4618ZM16.7242 1.34009L13.3243 7.30164L16.733 13.2219L20.2075 7.1623L16.7242 1.34009ZM20.571 7.76998L17.2077 13.6358L24.0804 13.6358L20.571 7.76998ZM17.2594 1.03187L20.5596 6.54823L23.7226 1.03187L17.2594 1.03187ZM20.6342 21.2352L17.2899 26.8476L23.8657 26.8476L20.6342 21.2352ZM17.3213 14.2437L20.6434 20.0135L24.0814 14.2437L17.3213 14.2437ZM24.2567 1.34217L20.9233 7.15577L24.6202 13.335L27.9748 7.64667L24.2567 1.34217ZM24.6206 14.545L20.9966 20.6269L24.3978 26.5337L28.0104 20.2928L24.6206 14.545ZM28.3333 8.2545L25.1597 13.6358L31.5069 13.6358L28.3333 8.2545ZM25.1597 14.2437L28.3656 19.6793L31.5119 14.2437L25.1597 14.2437ZM9.10181 27.4554C8.99001 27.4554 8.88681 27.3966 8.83168 27.3014L1.18415 14.0896C1.1301 13.9962 1.13028 13.8818 1.18476 13.7887L8.91324 0.576889C8.96855 0.48236 9.07133 0.42405 9.18261 0.42404L24.2529 0.42404C24.3638 0.42404 24.4663 0.481966 24.5218 0.575999L32.3135 13.7878L32.323 13.8056C32.3682 13.8954 32.3655 14.0018 32.3147 14.0896L24.667 27.3014C24.6119 27.3966 24.5088 27.4554 24.397 27.4554L9.10181 27.4554Z" fill="#24D660" fill-opacity="0.3"/>
<path d="M24.3443 7.42113e-05C24.6217 -0.0037977 24.8802 0.137555 25.0221 0.370918C25.1641 0.60426 25.168 0.894048 25.0325 1.13101L21.2295 7.77682C21.0922 8.01671 20.8332 8.16532 20.5523 8.16532L13.0505 8.16532L9.72329 13.9408L13.274 20.1404C13.4074 20.3732 13.4062 20.6576 13.2707 20.8893L9.42891 27.4615C9.29066 27.698 9.0336 27.8439 8.75526 27.8439C8.47692 27.8439 8.21986 27.698 8.08161 27.4615L0.398001 14.3171C0.260392 14.0817 0.261474 13.7922 0.40073 13.5578L8.16195 0.489339L8.18924 0.446601C8.33281 0.237994 8.5737 0.11152 8.83287 0.11152L16.3502 0.11152L24.3443 7.42113e-05ZM16.3723 1.63096C16.3686 1.63101 16.3649 1.6311 16.3613 1.6311L9.27929 1.6311L1.96753 13.9426L8.75526 25.5543L11.705 20.5081L8.15589 14.3113C8.02336 14.0799 8.0237 13.7976 8.1568 13.5665L11.921 7.03231L11.9483 6.98853C12.0911 6.77555 12.3345 6.64573 12.5971 6.64573L20.0976 6.64573L23.0201 1.53821L16.3723 1.63096Z" fill="#24D660"/>
<path d="M8.7968 27.8439L8.74511 27.8423C8.48822 27.8255 8.26526 27.7435 8.13522 27.5234C7.99649 27.2887 7.99708 26.7807 8.13522 26.5456L11.892 20.166C12.0305 19.9303 12.3582 19.7901 12.6359 19.7901L20.1377 19.7901L23.4649 14.0147L20.0418 8.16401L20.6387 8.16401C21.1944 8.04403 21.2363 7.71642 21.4395 7.41221L24.3555 2.31579C24.4057 2.22968 24.6112 1.8771 24.8517 1.44143C25.1066 1.02831 25.233 0.773821 24.9967 0.329202C25.0308 0.36823 25.0642 0.421488 25.1066 0.493935L32.7902 13.6383C32.9278 13.8737 32.9267 14.1631 32.7875 14.3975L25.0263 27.466L24.999 27.5089C24.8554 27.7175 24.6145 27.8439 24.3553 27.8439L8.7968 27.8439ZM31.2207 14.0129L24.3555 2.31579L21.4395 7.41221L25.0323 13.6441C25.1648 13.8755 25.1645 14.1579 25.0314 14.3889L21.2672 20.9231L21.2399 20.9668C21.0972 21.1798 20.8537 21.3097 20.5911 21.3097L13.0849 21.3097L10.1385 26.3244L23.9089 26.3243L31.2207 14.0129Z" fill="#00E6FF"/>
<path d="M132.737 8.4V18.7023H130.746V8.4H132.737Z" fill="black"/>
<path d="M125.176 18.8276C124.417 18.8276 123.735 18.6651 123.128 18.3403C122.521 18.0062 122.042 17.5375 121.692 16.9342C121.35 16.3309 121.18 15.6348 121.18 14.8459C121.18 14.057 121.355 13.3609 121.706 12.7576C122.066 12.1543 122.554 11.6902 123.171 11.3654C123.787 11.0313 124.474 10.8642 125.233 10.8642C125.991 10.8642 126.679 11.0313 127.295 11.3654C127.911 11.6902 128.395 12.1543 128.745 12.7576C129.106 13.3609 129.286 14.057 129.286 14.8459C129.286 15.6348 129.101 16.3309 128.731 16.9342C128.371 17.5375 127.878 18.0062 127.252 18.3403C126.636 18.6651 125.944 18.8276 125.176 18.8276ZM125.176 17.1291C125.536 17.1291 125.873 17.0455 126.186 16.8785C126.508 16.7021 126.764 16.4423 126.954 16.0988C127.143 15.7554 127.238 15.3378 127.238 14.8459C127.238 14.1126 127.039 13.5511 126.641 13.1613C126.252 12.7622 125.773 12.5627 125.204 12.5627C124.635 12.5627 124.157 12.7622 123.768 13.1613C123.389 13.5511 123.199 14.1126 123.199 14.8459C123.199 15.5791 123.384 16.1453 123.754 16.5444C124.133 16.9342 124.607 17.1291 125.176 17.1291Z" fill="black"/>
<path d="M117.919 12.1868C118.175 11.7784 118.507 11.4582 118.914 11.2262C119.331 10.9941 119.805 10.8781 120.336 10.8781V12.9246H119.81C119.184 12.9246 118.71 13.0685 118.388 13.3562C118.075 13.6439 117.919 14.1451 117.919 14.8598V18.7023H115.928V10.9895H117.919V12.1868Z" fill="black"/>
<path d="M112.733 12.5905V16.3216C112.733 16.5815 112.795 16.7717 112.918 16.8924C113.05 17.0038 113.269 17.0595 113.572 17.0595H114.496V18.7023H113.245C111.567 18.7023 110.728 17.9041 110.728 16.3077V12.5905H109.789V10.9895H110.728V9.08218H112.733V10.9895H114.496V12.5905H112.733Z" fill="black"/>
<path d="M105.378 10.8781C106.316 10.8781 107.075 11.1705 107.653 11.7552C108.231 12.3306 108.521 13.1381 108.521 14.1776V18.7023H106.53V14.4421C106.53 13.8296 106.373 13.3609 106.06 13.036C105.747 12.7019 105.321 12.5348 104.78 12.5348C104.23 12.5348 103.794 12.7019 103.472 13.036C103.159 13.3609 103.003 13.8296 103.003 14.4421V18.7023H101.012V10.9895H103.003V11.9501C103.268 11.616 103.605 11.3561 104.012 11.1705C104.43 10.9756 104.885 10.8781 105.378 10.8781Z" fill="black"/>
<path d="M95.4415 18.8276C94.683 18.8276 94.0004 18.6651 93.3936 18.3403C92.7869 18.0062 92.3081 17.5375 91.9573 16.9342C91.616 16.3309 91.4453 15.6348 91.4453 14.8459C91.4453 14.057 91.6207 13.3609 91.9715 12.7576C92.3318 12.1543 92.82 11.6902 93.4363 11.3654C94.0526 11.0313 94.7399 10.8642 95.4984 10.8642C96.2569 10.8642 96.9442 11.0313 97.5605 11.3654C98.1768 11.6902 98.6603 12.1543 99.0111 12.7576C99.3714 13.3609 99.5515 14.057 99.5515 14.8459C99.5515 15.6348 99.3666 16.3309 98.9969 16.9342C98.6366 17.5375 98.1436 18.0062 97.5178 18.3403C96.9016 18.6651 96.2095 18.8276 95.4415 18.8276ZM95.4415 17.1291C95.8018 17.1291 96.1384 17.0455 96.4512 16.8785C96.7736 16.7021 97.0296 16.4423 97.2192 16.0988C97.4088 15.7554 97.5036 15.3378 97.5036 14.8459C97.5036 14.1126 97.3045 13.5511 96.9063 13.1613C96.5176 12.7622 96.0388 12.5627 95.47 12.5627C94.9011 12.5627 94.4223 12.7622 94.0336 13.1613C93.6544 13.5511 93.4647 14.1126 93.4647 14.8459C93.4647 15.5791 93.6496 16.1453 94.0194 16.5444C94.3986 16.9342 94.8727 17.1291 95.4415 17.1291Z" fill="black"/>
<path d="M80.5449 13.8296C80.5449 12.8736 80.763 12.0197 81.1991 11.2679C81.6447 10.5069 82.2467 9.9175 83.0052 9.49984C83.7732 9.0729 84.6312 8.85943 85.5793 8.85943C86.6886 8.85943 87.6603 9.13787 88.4947 9.69475C89.329 10.2516 89.9121 11.022 90.2439 12.0058H87.9543C87.7267 11.5417 87.4044 11.1937 86.9872 10.9616C86.5795 10.7296 86.1055 10.6136 85.5651 10.6136C84.9867 10.6136 84.47 10.7482 84.0149 11.0173C83.5693 11.2772 83.2185 11.6485 82.9626 12.1311C82.7161 12.6137 82.5928 13.1799 82.5928 13.8296C82.5928 14.47 82.7161 15.0361 82.9626 15.5281C83.2185 16.0107 83.5693 16.3866 84.0149 16.6557C84.47 16.9156 84.9867 17.0455 85.5651 17.0455C86.1055 17.0455 86.5795 16.9295 86.9872 16.6975C87.4044 16.4562 87.7267 16.1035 87.9543 15.6394L90.2439 15.6394C89.9121 16.6325 89.329 17.4075 88.4947 17.9644C87.6698 18.512 86.698 18.7858 85.5793 18.7858C84.6312 18.7858 83.7732 18.577 83.0052 18.1593C82.2467 17.7324 81.6447 17.143 81.1991 16.3912C80.763 15.6394 80.5449 14.7855 80.5449 13.8296Z" fill="black"/>
<path d="M73.9966 18.7023L71.323 15.4167V18.7023H69.332V8.4H71.323V14.2612L73.9682 10.9895L76.5565 10.9895L73.0865 14.8598L76.5849 18.7023H73.9966Z" fill="black"/>
<path d="M60.2656 14.8459C60.2656 14.0477 60.4315 13.3516 60.7634 12.7576C61.0952 12.1543 61.555 11.6902 62.1428 11.3654C62.7307 11.0312 63.4038 10.8642 64.1623 10.8642C65.1388 10.8642 65.9447 11.1055 66.5799 11.5881C67.2246 12.0615 67.656 12.7297 67.8741 13.5929L65.7266 13.5929C65.6129 13.2588 65.4185 12.9989 65.1436 12.8133C64.8781 12.6184 64.5463 12.5209 64.1481 12.5209C63.5792 12.5209 63.1289 12.7251 62.797 13.1335C62.4652 13.5326 62.2993 14.1034 62.2993 14.8459C62.2993 15.5791 62.4652 16.1499 62.797 16.5583C63.1289 16.9574 63.5792 17.1569 64.1481 17.1569C64.9539 17.1569 65.4801 16.8042 65.7266 16.0988H67.8741C67.656 16.9342 67.2246 17.5978 66.5799 18.0897C65.9352 18.5816 65.1293 18.8276 64.1623 18.8276C63.4038 18.8276 62.7307 18.6651 62.1428 18.3403C61.555 18.0062 61.0952 17.5421 60.7634 16.9481C60.4315 16.3448 60.2656 15.6441 60.2656 14.8459Z" fill="black"/>
<path d="M55.2071 18.8276C54.4487 18.8276 53.766 18.6651 53.1593 18.3403C52.5525 18.0062 52.0737 17.5375 51.7229 16.9342C51.3816 16.3309 51.2109 15.6348 51.2109 14.8459C51.2109 14.057 51.3863 13.3609 51.7371 12.7576C52.0974 12.1543 52.5857 11.6902 53.2019 11.3654C53.8182 11.0313 54.5056 10.8642 55.264 10.8642C56.0225 10.8642 56.7099 11.0313 57.3261 11.3654C57.9424 11.6902 58.4259 12.1543 58.7767 12.7576C59.137 13.3609 59.3171 14.057 59.3171 14.8459C59.3171 15.6348 59.1322 16.3309 58.7625 16.9342C58.4022 17.5375 57.9092 18.0062 57.2835 18.3403C56.6672 18.6651 55.9751 18.8276 55.2071 18.8276ZM55.2071 17.1291C55.5674 17.1291 55.904 17.0455 56.2169 16.8785C56.5392 16.7021 56.7952 16.4423 56.9848 16.0988C57.1744 15.7554 57.2692 15.3378 57.2692 14.8459C57.2692 14.1126 57.0701 13.5511 56.6719 13.1613C56.2832 12.7622 55.8044 12.5627 55.2356 12.5627C54.6667 12.5627 54.1879 12.7622 53.7992 13.1613C53.42 13.5511 53.2304 14.1126 53.2304 14.8459C53.2304 15.5791 53.4152 16.1453 53.785 16.5444C54.1642 16.9342 54.6383 17.1291 55.2071 17.1291Z" fill="black"/>
<path d="M49.741 8.4V18.7023H47.75V8.4H49.741Z" fill="black"/>
<path d="M44.2449 13.7182C44.8043 13.8203 45.2641 14.0941 45.6244 14.5396C45.9847 14.9851 46.1648 15.4956 46.1648 16.071C46.1648 16.5908 46.0321 17.0502 45.7666 17.4493C45.5106 17.8391 45.1361 18.1454 44.6431 18.3681C44.1501 18.5909 43.5671 18.7023 42.8939 18.7023H38.6133V8.98472H42.709C43.3822 8.98472 43.9605 9.09145 44.444 9.30492C44.937 9.51839 45.3068 9.8154 45.5533 10.1959C45.8093 10.5765 45.9373 11.008 45.9373 11.4907C45.9373 12.0568 45.7808 12.5302 45.468 12.9107C45.1646 13.2912 44.7569 13.5604 44.2449 13.7182ZM40.6043 12.9942H42.4246C42.8987 12.9942 43.2637 12.8922 43.5197 12.688C43.7756 12.4745 43.9036 12.1728 43.9036 11.783C43.9036 11.3932 43.7756 11.0916 43.5197 10.8781C43.2637 10.6646 42.8987 10.5579 42.4246 10.5579H40.6043V12.9942ZM42.6095 17.1151C43.093 17.1151 43.4675 17.0038 43.733 16.781C44.0079 16.5583 44.1454 16.2427 44.1454 15.8343C44.1454 15.4167 44.0032 15.0918 43.7188 14.8598C43.4343 14.6185 43.0503 14.4978 42.5668 14.4978H40.6043V17.1151H42.6095Z" fill="black"/>
</g>
<defs>
<clipPath id="clip0_361_2250">
<rect width="133" height="28" fill="white"/>
</clipPath>
</defs>
</svg>
